<svg width="105" height="87" viewBox="0 0 105 87" fill="none" xmlns="http://www.w3.org/2000/svg">
<path d="M34.1754 3.31549L21.8355 13.4518C21.2989 13.8927 20.6193 14.1297 19.925 14.1468C5.23984 14.5076 1.84274 22.2277 2.00549 26.1337V71.1337C2.00549 80.3337 10.3388 83.6337 14.5055 84.1337H84.5055C99.3055 84.1337 102.672 75.467 102.505 71.1337V26.1337C102.505 15.9634 90.6818 13.8629 83.7358 14.07C82.9457 14.0936 82.1679 13.8461 81.5662 13.3335L69.8463 3.34994C69.3036 2.88759 68.6139 2.63367 67.9009 2.63367H36.0797C35.3851 2.63367 34.7121 2.87464 34.1754 3.31549Z" stroke="white" stroke-width="4" stroke-linecap="round"/>
<circle cx="53.0055" cy="46.6337" r="25" stroke="white" stroke-width="4"/>
</svg>
