<svg width="94" height="95" viewBox="0 0 94 95" fill="none" xmlns="http://www.w3.org/2000/svg">
<path d="M41.9453 45.1176L40.8849 44.009L39.5394 44.7458L29.2049 50.4052L42.4973 35.9569L52.0257 46.3514L53.1052 47.5291L54.4923 46.7365L64.3018 41.1311L51.4716 55.0769L41.9453 45.1176Z" fill="white" stroke="white" stroke-width="4"/>
<path d="M2 44.3045C2 57.3264 8.24838 68.9249 18.0247 76.6709V90.9106C18.0247 91.6267 18.3947 92.3352 19.0709 92.7239C19.7221 93.0982 20.5244 93.0916 21.1701 92.706L34.9349 85.0552C38.7762 86.0526 42.8228 86.5946 47 86.5946C71.7309 86.5946 92 67.7796 92 44.2901C92 20.7997 71.7299 2 47 2C22.2691 2 2 20.815 2 44.3045ZM18.0247 75.7406V75.7827C18.0226 75.7295 18.0247 75.7095 18.0247 75.7406ZM39.2679 44.7758L28.967 50.4785L42.4767 35.9662L52.1854 46.2001L52.2014 46.2171L52.2179 46.2336C52.4547 46.4718 52.8249 46.7277 53.3283 46.8198C53.8317 46.9119 54.3343 46.8135 54.7535 46.5689L64.6193 41.0416L51.2826 55.3514L41.8451 45.1659L41.8212 45.1401L41.7964 45.1152C41.5596 44.877 41.1894 44.6211 40.6859 44.529C40.1854 44.4375 39.6857 44.5343 39.2679 44.7758Z" stroke="white" stroke-width="4" stroke-miterlimit="10"/>
</svg>
